<svg width="562" height="523" viewBox="0 0 562 523" fill="none" xmlns="http://www.w3.org/2000/svg" xmlns:xlink="http://www.w3.org/1999/xlink">
<g id="Frame 1">
<g id="blob_small">
<g id="Ellipse 3" filter="url(#filter0_d)">
<path d="M85.3204 305.989C170.872 283.911 188.139 297.541 207.624 317.159C227.109 336.778 268.606 414.079 260.305 433.058C252.004 452.036 181.211 450.83 78.5503 417.19C-24.1101 383.549 -0.231381 328.066 85.3204 305.989Z" fill="url(#paint0_linear)"/>
</g>
</g>
<g id="blob_big">
<g id="Ellipse 2" filter="url(#filter1_d)">
<path d="M485.208 227.712C568.265 288.319 547.829 363.731 405.413 419.873C262.996 476.015 171.235 460.765 127.786 372.659C84.3377 284.552 52.706 167.923 140.699 124.531C228.693 81.1378 402.151 167.104 485.208 227.712Z" fill="url(#paint1_linear)"/>
</g>
</g>
<g id="dog">
<mask id="mask0" mask-type="alpha" maskUnits="userSpaceOnUse" x="119" y="110" width="397" height="343">
<path id="Ellipse 3_2" d="M456.5 257C538 316 547.829 363.73 405.413 419.872C262.996 476.014 171.235 460.765 127.786 372.658C84.3376 284.552 235.301 295.469 186.5 132.5C451.213 55.4694 373.443 196.392 456.5 257Z" fill="white"/>
</mask>
<g mask="url(#mask0)">
<rect id="nobackgrnddog 1" x="153.426" y="111.104" width="400.735" height="345.879" fill="url(#pattern0)"/>
</g>
</g>
</g>
<defs>
<filter id="filter0_d" x="0.892181" y="287.64" width="270.496" height="170.742" filterUnits="userSpaceOnUse" color-interpolation-filters="sRGB">
<feFlood flood-opacity="0" result="BackgroundImageFix"/>
<feColorMatrix in="SourceAlpha" type="matrix" values="0 0 0 0 0 0 0 0 0 0 0 0 0 0 0 0 0 0 127 0"/>
<feOffset dy="3"/>
<feGaussianBlur stdDeviation="5"/>
<feColorMatrix type="matrix" values="0 0 0 0 0 0 0 0 0 0 0 0 0 0 0 0 0 0 0.25 0"/>
<feBlend mode="normal" in2="BackgroundImageFix" result="effect1_dropShadow"/>
<feBlend mode="normal" in="SourceGraphic" in2="effect1_dropShadow" result="shape"/>
</filter>
<filter id="filter1_d" x="64.7068" y="94.7448" width="489.359" height="380.152" filterUnits="userSpaceOnUse" color-interpolation-filters="sRGB">
<feFlood flood-opacity="0" result="BackgroundImageFix"/>
<feColorMatrix in="SourceAlpha" type="matrix" values="0 0 0 0 0 0 0 0 0 0 0 0 0 0 0 0 0 0 127 0"/>
<feOffset dy="2"/>
<feGaussianBlur stdDeviation="10"/>
<feColorMatrix type="matrix" values="0 0 0 0 0 0 0 0 0 0 0 0 0 0 0 0 0 0 0.15 0"/>
<feBlend mode="normal" in2="BackgroundImageFix" result="effect1_dropShadow"/>
<feBlend mode="normal" in="SourceGraphic" in2="effect1_dropShadow" result="shape"/>
</filter>
<pattern id="pattern0" patternContentUnits="objectBoundingBox" width="1" height="1">
<use xlink:href="#image0" transform="translate(0 -0.000341364) scale(0.00071736 0.000831132)"/>
</pattern>
<linearGradient id="paint0_linear" x1="123.635" y1="432.132" x2="169.227" y2="294.555" gradientUnits="userSpaceOnUse">
<stop stop-color="#985CFF"/>
<stop offset="1" stop-color="#370091"/>
</linearGradient>
<linearGradient id="paint1_linear" x1="85.5875" y1="134.439" x2="446.769" y2="418.822" gradientUnits="userSpaceOnUse">
<stop stop-color="#FFC837"/>
<stop offset="1" stop-color="#FF8008"/>
</linearGradient>
<image id="image0" data-name="nobackgrnddog.png" width="1394" height="1204" xlink:href="/public/img/nobackgrnddog_1.png" />
</defs>
</svg>
